<?xml version="1.0" encoding="utf-8"?>
<!-- Generator: Adobe Illustrator 24.1.1, SVG Export Plug-In . SVG Version: 6.00 Build 0)  -->
<svg version="1.1" id="Слой_1" xmlns="http://www.w3.org/2000/svg" xmlns:xlink="http://www.w3.org/1999/xlink" x="0px" y="0px"
	 viewBox="0 0 24 24" style="enable-background:new 0 0 24 24;" xml:space="preserve">
<style type="text/css">
	.st0{fill:#FFFFFF;}
</style>
<path class="st0" d="M15.6,12c0,2-1.6,3.6-3.6,3.6S8.4,14,8.4,12S10,8.4,12,8.4S15.6,10,15.6,12 M12,0C5.4,0,0,5.4,0,12
	s5.4,12,12,12c2.4,0,4.8-0.7,6.8-2.1l0,0L17.2,20l0,0c-1.5,1-3.3,1.5-5.1,1.5c-5.3,0-9.5-4.3-9.5-9.5S6.7,2.5,12,2.5
	s9.5,4.3,9.5,9.5c0,0.7-0.1,1.4-0.2,2.1c-0.3,1.2-1.2,1.6-1.8,1.6c-0.7-0.1-1.4-0.5-1.4-1.7v-2c0-3.4-2.7-6.1-6.1-6.1
	c-3.4,0-6.1,2.7-6.1,6.1c0,3.4,2.7,6.1,6.1,6.1c1.6,0,3.2-0.6,4.3-1.8c0.7,1.1,2,1.8,3.3,1.8c0.9,0,1.7-0.3,2.4-0.8
	c0.7-0.5,1.3-1.3,1.6-2.3c0-0.2,0.1-0.5,0.1-0.5l0,0c0.2-0.8,0.3-1.5,0.3-2.5C24,5.4,18.6,0,12,0"/>
</svg>
